<?xml version="1.0" encoding="utf-8"?>
<!-- Generator: Adobe Illustrator 18.1.0, SVG Export Plug-In . SVG Version: 6.00 Build 0)  -->
<svg version="1.1" id="Layer_1" xmlns:sketch="http://www.bohemiancoding.com/sketch/ns"
	 xmlns="http://www.w3.org/2000/svg" xmlns:xlink="http://www.w3.org/1999/xlink" x="0px" y="0px"
	 viewBox="-481.9 157.1 1082.9 382.5" enable-background="new -481.9 157.1 1082.9 382.5" xml:space="preserve">
<title>Artboard 1</title>
<desc>Created with Sketch.</desc>
<path fill="#79BACC" d="M-158.9,390.7c3.1,2-9.7,42-44.9,72.8c-10.9,9.5-43.9,37.8-93.8,38.7c-11.2,0.2-47.5-0.5-80.1-23.9
	c-11-7.9-18.4-16.1-23.3-21.7c-21.5-24.1-29.9-47.8-33-57.5c-4.7-15-6.9-30.8-5.1-31.3c2.6-0.8,6.8,29.5,28,53.1
	c2,2.2,35.2,38.4,76.3,34.3c29-2.9,32.5-22.9,63.7-24.3c25-1.1,29.2,11.5,50,9C-182.8,435.4-162.3,388.5-158.9,390.7z"/>
<g id="Artboard-1" sketch:type="MSArtboardGroup">
	<rect id="Rectangle-2" x="-154.8" y="344" sketch:type="MSShapeGroup" fill="#DA353E" width="6.8" height="26.2">
	</rect>
	<rect id="Rectangle-3" x="-450.2" y="344" sketch:type="MSShapeGroup" fill="#DA363E" width="6.8" height="26.2">
	</rect>
	<path id="Oval-2" sketch:type="MSShapeGroup" fill="none" stroke="#EE3A43" stroke-width="6" d="M-299.1,502.3
		c79.7,0,144.3-64.6,144.3-144.3s-64.6-144.3-144.3-144.3S-443.4,278.3-443.4,358S-378.8,502.3-299.1,502.3z"/>
	
		<g id="brush" transform="translate(314.871094, 259.648438) rotate(27.000000) translate(-314.871094, -259.648438) translate(264.371094, 65.648438)" sketch:type="MSLayerGroup">
		<rect id="Rectangle-1" x="-494" y="593.7" sketch:type="MSShapeGroup" fill="#3A3838" width="85.4" height="34.4">
		</rect>
		<g>
			<path id="Path-2" sketch:type="MSShapeGroup" fill="#3A3838" d="M-430.7,436.6c0.6-12.1-0.9-22.5-1.8-27.9c-0.1-0.4,0-2-0.7-3.9
				c-2.4-6.7-11.3-11.4-15.6-9.5c-0.6,0.3-1.3,0.7-2.3,0.7c-1.8-0.1-3.5-1.7-4.1-3.6c-0.6-1.9,0.2-3.6,0.4-4
				c1.1-2.3,3.2-2.6,4.6-3.7c1.7-1.5,2.7-5,0-13.9c-3,2.3-7.1,6-10.6,11.5c-7.5,11.6-6.6,23.9-7.5,30.7
				c-4.7,33.1,6.3,92.7,7.5,100.9c0.8,5.5,0.7,11.7,0,15.1c-1.3,6.7-4.3,12.8-6.4,16.9c-6.3,12-25.7,29.7-25.7,29.7l0,11.9l85,0
				v-11.9c0,0-13.8-13.8-22.6-27.2c-5.1-7.6-6.9-15.6-7.8-19.4c-0.9-3.8-0.8-9.6,0-15.1C-438.4,513.3-432.3,468.6-430.7,436.6z"/>
			<defs>
				<filter id="Adobe_OpacityMaskFilter" filterUnits="userSpaceOnUse" x="-377.9" y="350.5" width="3.9" height="11.9">
					<feFlood  style="flood-color:white;flood-opacity:1" result="back"/>
					<feBlend  in="SourceGraphic" in2="back" mode="normal"/>
				</filter>
			</defs>
			<mask maskUnits="userSpaceOnUse" x="-377.9" y="350.5" width="3.9" height="11.9" id="SVGID_1_">
				<g filter="url(#Adobe_OpacityMaskFilter)">
				</g>
			</mask>
			<circle mask="url(#SVGID_1_)" fill="#FFFFFF" cx="-376" cy="356.4" r="4.4"/>
		</g>
		<path id="Path-8" sketch:type="MSShapeGroup" fill="#3A3838" d="M-493.9,632.7l10,0.1l0.2,63.2c0,0-4.3-1.1-6.4-1.7
			c-1.3-0.4-3.9-1.4-3.9-1.4L-493.9,632.7z"/>
		<path id="Path-9" sketch:type="MSShapeGroup" fill="#3A3838" d="M-478.5,632.7l10.9,0.1l0,65.5c0,0-4-0.3-5.9-0.6
			c-1.8-0.2-5.3-0.9-5.3-0.9L-478.5,632.7z"/>
		<path id="Path-9_1_" sketch:type="MSShapeGroup" fill="#3A3838" d="M-462.2,632.7h16.8l2.9,65.6c0,0-8.1,0.7-12.5,0.7
			c-2.3,0-7.7-0.3-7.7-0.3L-462.2,632.7z"/>
	</g>
	<path id="Path-5" sketch:type="MSShapeGroup" fill="#515151" d="M-218,202.3c2,2.1,2.6,4.8,1.6,6.8c-0.6,1.1-1.7,2.2-3,2.6
		c-1.3,0.4-3.2,0.5-3.2,0.5L-311.4,382l39.1,20.1l5.4-10.5c0,0-6.8-23.8-7.8-37.6c-0.5-7.1,1.4-22.8,7.1-29.5
		c5.8-6.7,36.9-56.2,36.9-56.2s6.7-10.5,9-15.4c1.5-3.1,3.2-6.9,4.7-10.8c2.4-6.1,4.5-11.9,4.5-11.9s2.9-10.3,4-15.2
		c0.7-3.1,1.2-8.9,1.2-8.9c0.4-2.5,0.2-4.4,0-5.8c-0.9-5.4-4.5-10.4-4.5-10.4l0,0C-213.8,194-215.9,198.2-218,202.3z"/>
	<path id="Path-6" sketch:type="MSShapeGroup" fill="#515151" d="M-314,387.4l-16.4,30.1l39.9,20.2l15.9-30.6L-314,387.4z"/>
	<path id="Path-7" sketch:type="MSShapeGroup" fill="#515151" d="M-332.6,421.8l-30,59c6.4,3.1,13.8,6.3,22.1,9.2
		c7.3,2.5,14.2,4.4,20.5,5.8c9-17.8,18.1-35.7,27.1-53.5L-332.6,421.8z"/>
</g>
<g>
	<path fill="#D74B4B" d="M-79.3,355l1.1-9.9h-0.4l-3.3,7.5l-11,17.7h-3.1l-11.7-17.8l-3.2-7.3h-0.4l1.4,9.7v23.9h-9.5v-47.6h9.1
		l13.7,22l2.6,5.2h0.3l2.2-5.4l13.1-21.8h9v47.6h-10.1V355z"/>
	<path fill="#D74B4B" d="M-31.7,368.8h-16l-3.9,10.1h-10.1l18.6-47.9h7.4l18.7,47.9h-10.7L-31.7,368.8z M-45,360.8h10.9l-3.7-9.9
		l-1.6-7.5h-0.3l-1.6,7.6L-45,360.8z"/>
	<path fill="#D74B4B" d="M23.3,378.9H-9.4v-47.6H0.6v38.8h22.7V378.9z"/>
	<path fill="#D74B4B" d="M28.1,355.1c0-3.9,0.5-7.4,1.5-10.5c1-3.1,2.4-5.7,4.3-7.8c1.9-2.1,4.2-3.7,6.9-4.8
		c2.7-1.1,5.8-1.7,9.2-1.7c3.7,0,6.9,0.6,9.6,1.8c2.7,1.2,5,2.9,6.9,5.1c1.8,2.2,3.2,4.8,4.1,7.8c0.9,3,1.4,6.4,1.4,10.1
		c0,3.9-0.5,7.4-1.5,10.5c-1,3.1-2.5,5.7-4.4,7.8c-1.9,2.1-4.2,3.7-6.9,4.8c-2.7,1.1-5.8,1.7-9.2,1.7c-3.7,0-6.9-0.6-9.6-1.8
		c-2.7-1.2-5-2.9-6.9-5.1c-1.8-2.2-3.2-4.8-4.1-7.8C28.6,362.1,28.1,358.8,28.1,355.1z M38.8,355.1c0,2.4,0.2,4.5,0.7,6.5
		c0.5,1.9,1.1,3.6,2,5c0.9,1.4,2.1,2.5,3.5,3.3c1.4,0.8,3.1,1.2,5.1,1.2c3.6,0,6.4-1.2,8.4-3.7c2-2.4,3-6.5,3-12.2
		c0-2.3-0.2-4.4-0.6-6.3c-0.4-1.9-1.1-3.6-2-5.1c-0.9-1.4-2.1-2.5-3.5-3.3c-1.4-0.8-3.2-1.2-5.2-1.2c-3.5,0-6.3,1.3-8.3,3.8
		C39.8,345.5,38.8,349.6,38.8,355.1z"/>
	<path fill="#D74B4B" d="M92.8,354.1l-4.1-7.1h-0.3l1.1,7.2v24.8H80V331h7.3l19.7,25.4l3.9,6.9h0.4l-1.1-7v-25h9.5v47.9h-7.3
		L92.8,354.1z"/>
	<path fill="#D74B4B" d="M131.6,331.3h30.7v8.8h-20.6v10.3h18.7v8.8h-18.7v10.7h20.9v8.8h-31V331.3z"/>
	<path fill="#D74B4B" d="M185.6,361.4l-17-30.1h12l9.5,17.5l1.1,5.1h0.3l1.2-5.2l9.2-17.3h10.8l-17,30v17.6h-10.1V361.4z"/>
	<path fill="#D74B4B" d="M240,331.8c2-0.4,4.3-0.6,6.8-0.9c2.5-0.2,5-0.3,7.5-0.3c2.5,0,5.1,0.2,7.7,0.6c2.6,0.4,4.9,1.2,7,2.3
		c2.1,1.2,3.8,2.8,5.1,4.8c1.3,2.1,2,4.8,2,8.2c0,3-0.6,5.5-1.7,7.7c-1.1,2.1-2.6,3.8-4.5,5.1c-1.9,1.3-4,2.3-6.4,2.9
		c-2.4,0.6-4.9,0.9-7.4,0.9c-0.2,0-0.6,0-1.2,0c-0.5,0-1.1,0-1.7,0c-0.6,0-1.2-0.1-1.7-0.1c-0.5,0-1-0.1-1.2-0.1v16H240V331.8z
		 M254.9,339.5c-1,0-1.9,0-2.8,0.1c-0.9,0-1.6,0.1-2.1,0.3v14.1c0.2,0,0.5,0.1,0.9,0.1c0.4,0,0.8,0.1,1.3,0.1c0.5,0,0.9,0,1.3,0.1
		c0.4,0,0.7,0,0.9,0c1.3,0,2.6-0.1,3.9-0.3c1.3-0.2,2.5-0.6,3.5-1.2c1-0.6,1.8-1.4,2.5-2.4s1-2.4,1-4.1c0-1.5-0.3-2.6-0.9-3.5
		c-0.6-0.9-1.4-1.6-2.3-2.1c-1-0.5-2.1-0.8-3.3-1C257.5,339.6,256.2,339.5,254.9,339.5z"/>
	<path fill="#D74B4B" d="M305.1,368.8h-16l-3.9,10.1h-10.1l18.6-47.9h7.4l18.7,47.9h-10.7L305.1,368.8z M291.9,360.8h10.9l-3.7-9.9
		l-1.6-7.5h-0.3l-1.6,7.6L291.9,360.8z"/>
	<path fill="#D74B4B" d="M331.2,336.7h-5.4v-5.4h20.9v5.4h-5.4v36.7h5.4v5.4h-20.9v-5.4h5.4V336.7z"/>
	<path fill="#D74B4B" d="M369.8,354.1l-4.1-7.1h-0.3l1.1,7.2v24.8h-9.5V331h7.3l19.7,25.4l3.9,6.9h0.4l-1.1-7v-25h9.5v47.9h-7.3
		L369.8,354.1z"/>
	<path fill="#D74B4B" d="M445.2,340.1h-15.1v38.8H420v-38.8h-15.1v-8.8h40.3V340.1z"/>
	<path fill="#D74B4B" d="M457.3,336.7h-5.4v-5.4h20.9v5.4h-5.4v36.7h5.4v5.4h-20.9v-5.4h5.4V336.7z"/>
	<path fill="#D74B4B" d="M495.9,354.1l-4.1-7.1h-0.3l1.1,7.2v24.8h-9.5V331h7.3l19.7,25.4l3.9,6.9h0.4l-1.1-7v-25h9.5v47.9h-7.3
		L495.9,354.1z"/>
	<path fill="#D74B4B" d="M552.8,353.9h19.4v21.4c-1,0.8-2.2,1.5-3.4,2.1c-1.2,0.6-2.6,1-3.9,1.4c-1.4,0.4-2.8,0.7-4.2,0.9
		c-1.5,0.2-2.9,0.3-4.3,0.3c-3.3,0-6.3-0.5-9.1-1.4c-2.8-1-5.3-2.4-7.4-4.5c-2.1-2-3.8-4.6-5-7.7c-1.2-3.1-1.8-6.8-1.8-11.2
		c0-4.5,0.7-8.3,2.2-11.5c1.5-3.2,3.3-5.7,5.7-7.7c2.3-2,4.9-3.4,7.8-4.3c2.9-0.9,5.7-1.3,8.6-1.3c2.9,0,5.5,0.2,7.8,0.6
		c2.2,0.4,4,0.8,5.3,1.3l-2.1,8.4c-1.2-0.4-2.6-0.7-4.1-1c-1.5-0.3-3.5-0.4-5.8-0.4c-2.1,0-4.1,0.3-5.8,0.9
		c-1.8,0.6-3.3,1.5-4.6,2.8c-1.3,1.3-2.3,2.9-3.1,5c-0.7,2-1.1,4.5-1.1,7.4c0,2.8,0.4,5.2,1.1,7.2c0.7,2,1.7,3.6,3,4.9
		c1.2,1.3,2.7,2.2,4.3,2.8c1.6,0.6,3.4,0.9,5.2,0.9c1.2,0,2.5-0.1,3.7-0.4c1.2-0.3,2.3-0.7,3.2-1.3v-8.2l-11.3-1.1V353.9z"/>
</g>
</svg>
