<?xml version="1.0" encoding="UTF-8" standalone="no"?>
<svg id="Layer_1" xmlns:sketch="http://www.bohemiancoding.com/sketch/ns" xmlns="http://www.w3.org/2000/svg" xml:space="preserve" viewBox="-481.9 157.1 1082.9 382.5" version="1.1" y="0px" x="0px" xmlns:xlink="http://www.w3.org/1999/xlink" enable-background="new -481.9 157.1 1082.9 382.5">
<title>Maloney Media Logo</title>
<desc>Created with Sketch.</desc>
<path d="m-158.9 390.7c3.1 2-9.7 42-44.9 72.8-10.9 9.5-43.9 37.8-93.8 38.7-11.2 0.2-47.5-0.5-80.1-23.9-11-7.9-18.4-16.1-23.3-21.7-21.5-24.1-29.9-47.8-33-57.5-4.7-15-6.9-30.8-5.1-31.3 2.6-0.8 6.8 29.5 28 53.1 2 2.2 35.2 38.4 76.3 34.3 29-2.9 32.5-22.9 63.7-24.3 25-1.1 29.2 11.5 50 9 38.3-4.5 58.8-51.4 62.2-49.2z" fill="#79BACC"/>
<g id="Artboard-1" sketch:type="MSArtboardGroup">
	<rect id="Rectangle-2" sketch:type="MSShapeGroup" height="26.2" width="6.8" y="344" x="-154.8" fill="#DA353E">
	</rect>
	<rect id="Rectangle-3" sketch:type="MSShapeGroup" height="26.2" width="6.8" y="344" x="-450.2" fill="#DA363E">
	</rect>
	<path id="Oval-2" d="m-299.1 502.3c79.7 0 144.3-64.6 144.3-144.3s-64.6-144.3-144.3-144.3-144.3 64.6-144.3 144.3 64.6 144.3 144.3 144.3z" sketch:type="MSShapeGroup" stroke="#EE3A43" stroke-width="6" fill="none"/>
		<g id="brush" sketch:type="MSLayerGroup" transform="translate(314.87 259.65) rotate(27) translate(-50.5 -194)">
		<rect id="Rectangle-1" sketch:type="MSShapeGroup" height="34.4" width="85.4" y="593.7" x="-494" fill="#3A3838">
		</rect>
			<path id="Path-2" d="m-430.7 436.6c0.6-12.1-0.9-22.5-1.8-27.9-0.1-0.4 0-2-0.7-3.9-2.4-6.7-11.3-11.4-15.6-9.5-0.6 0.3-1.3 0.7-2.3 0.7-1.8-0.1-3.5-1.7-4.1-3.6s0.2-3.6 0.4-4c1.1-2.3 3.2-2.6 4.6-3.7 1.7-1.5 2.7-5 0-13.9-3 2.3-7.1 6-10.6 11.5-7.5 11.6-6.6 23.9-7.5 30.7-4.7 33.1 6.3 92.7 7.5 100.9 0.8 5.5 0.7 11.7 0 15.1-1.3 6.7-4.3 12.8-6.4 16.9-6.3 12-25.7 29.7-25.7 29.7v11.9h85v-11.9s-13.8-13.8-22.6-27.2c-5.1-7.6-6.9-15.6-7.8-19.4s-0.8-9.6 0-15.1c-0.1-0.6 6-45.3 7.6-77.3z" fill="#3A3838" sketch:type="MSShapeGroup"/>
			<defs>
				<filter id="Adobe_OpacityMaskFilter" height="11.9" width="3.9" y="350.5" x="-377.9" filterUnits="userSpaceOnUse">
					<feFlood style="flood-color:white" result="back"/>
					<feBlend mode="normal" in2="back" in="SourceGraphic"/>
				</filter>
			</defs>
			<mask id="SVGID_1_" height="11.9" width="3.9" y="350.5" x="-377.9" maskUnits="userSpaceOnUse">
			</mask>
			<circle r="4.4" cy="356.4" cx="-376" mask="url(#SVGID_1_)" fill="#fff"/>
		<path id="Path-8" d="m-493.9 632.7l10 0.1 0.2 63.2s-4.3-1.1-6.4-1.7c-1.3-0.4-3.9-1.4-3.9-1.4l0.1-60.2z" fill="#3A3838" sketch:type="MSShapeGroup"/>
		<path id="Path-9" d="m-478.5 632.7l10.9 0.1v65.5s-4-0.3-5.9-0.6c-1.8-0.2-5.3-0.9-5.3-0.9l0.3-64.1z" fill="#3A3838" sketch:type="MSShapeGroup"/>
		<path id="Path-9_1_" d="m-462.2 632.7h16.8l2.9 65.6s-8.1 0.7-12.5 0.7c-2.3 0-7.7-0.3-7.7-0.3l0.5-66z" fill="#3A3838" sketch:type="MSShapeGroup"/>
	</g>
	<path id="Path-5" d="m-218 202.3c2 2.1 2.6 4.8 1.6 6.8-0.6 1.1-1.7 2.2-3 2.6s-3.2 0.5-3.2 0.5l-88.8 169.8 39.1 20.1 5.4-10.5s-6.8-23.8-7.8-37.6c-0.5-7.1 1.4-22.8 7.1-29.5 5.8-6.7 36.9-56.2 36.9-56.2s6.7-10.5 9-15.4c1.5-3.1 3.2-6.9 4.7-10.8 2.4-6.1 4.5-11.9 4.5-11.9s2.9-10.3 4-15.2c0.7-3.1 1.2-8.9 1.2-8.9 0.4-2.5 0.2-4.4 0-5.8-0.9-5.4-4.5-10.4-4.5-10.4-2 4.1-4.1 8.3-6.2 12.4z" fill="#515151" sketch:type="MSShapeGroup"/>
	<path id="Path-6" d="m-314 387.4l-16.4 30.1 39.9 20.2 15.9-30.6-39.4-19.7z" fill="#515151" sketch:type="MSShapeGroup"/>
	<path id="Path-7" d="m-332.6 421.8l-30 59c6.4 3.1 13.8 6.3 22.1 9.2 7.3 2.5 14.2 4.4 20.5 5.8 9-17.8 18.1-35.7 27.1-53.5l-39.7-20.5z" fill="#515151" sketch:type="MSShapeGroup"/>
</g>
<g fill="#D74B4B">
	<path d="m-79.3 355l1.1-9.9h-0.4l-3.3 7.5-11 17.7h-3.1l-11.7-17.8-3.2-7.3h-0.4l1.4 9.7v23.9h-9.5v-47.6h9.1l13.7 22 2.6 5.2h0.3l2.2-5.4 13.1-21.8h9v47.6h-10.1v-23.8z"/>
	<path d="m-31.7 368.8h-16l-3.9 10.1h-10.1l18.6-47.9h7.4l18.7 47.9h-10.7l-4-10.1zm-13.3-8h10.9l-3.7-9.9-1.6-7.5h-0.3l-1.6 7.6-3.7 9.8z"/>
	<path d="m23.3 378.9h-32.7v-47.6h10v38.8h22.7v8.8z"/>
	<path d="m28.1 355.1c0-3.9 0.5-7.4 1.5-10.5s2.4-5.7 4.3-7.8 4.2-3.7 6.9-4.8 5.8-1.7 9.2-1.7c3.7 0 6.9 0.6 9.6 1.8s5 2.9 6.9 5.1c1.8 2.2 3.2 4.8 4.1 7.8s1.4 6.4 1.4 10.1c0 3.9-0.5 7.4-1.5 10.5s-2.5 5.7-4.4 7.8-4.2 3.7-6.9 4.8-5.8 1.7-9.2 1.7c-3.7 0-6.9-0.6-9.6-1.8s-5-2.9-6.9-5.1c-1.8-2.2-3.2-4.8-4.1-7.8-0.8-3.1-1.3-6.4-1.3-10.1zm10.7 0c0 2.4 0.2 4.5 0.7 6.5 0.5 1.9 1.1 3.6 2 5s2.1 2.5 3.5 3.3 3.1 1.2 5.1 1.2c3.6 0 6.4-1.2 8.4-3.7 2-2.4 3-6.5 3-12.2 0-2.3-0.2-4.4-0.6-6.3s-1.1-3.6-2-5.1c-0.9-1.4-2.1-2.5-3.5-3.3s-3.2-1.2-5.2-1.2c-3.5 0-6.3 1.3-8.3 3.8-2.1 2.4-3.1 6.5-3.1 12z"/>
	<path d="m92.8 354.1l-4.1-7.1h-0.3l1.1 7.2v24.8h-9.5v-48h7.3l19.7 25.4 3.9 6.9h0.4l-1.1-7v-25h9.5v47.9h-7.3l-19.6-25.1z"/>
	<path d="m131.6 331.3h30.7v8.8h-20.6v10.3h18.7v8.8h-18.7v10.7h20.9v8.8h-31v-47.4z"/>
	<path d="m185.6 361.4l-17-30.1h12l9.5 17.5 1.1 5.1h0.3l1.2-5.2 9.2-17.3h10.8l-17 30v17.6h-10.1v-17.6z"/>
	<path d="m240 331.8c2-0.4 4.3-0.6 6.8-0.9 2.5-0.2 5-0.3 7.5-0.3s5.1 0.2 7.7 0.6 4.9 1.2 7 2.3c2.1 1.2 3.8 2.8 5.1 4.8 1.3 2.1 2 4.8 2 8.2 0 3-0.6 5.5-1.7 7.7-1.1 2.1-2.6 3.8-4.5 5.1s-4 2.3-6.4 2.9-4.9 0.9-7.4 0.9h-1.2-1.7c-0.6 0-1.2-0.1-1.7-0.1s-1-0.1-1.2-0.1v16h-10.3v-47.1zm14.9 7.7c-1 0-1.9 0-2.8 0.1-0.9 0-1.6 0.1-2.1 0.3v14.1c0.2 0 0.5 0.1 0.9 0.1s0.8 0.1 1.3 0.1 0.9 0 1.3 0.1h0.9c1.3 0 2.6-0.1 3.9-0.3s2.5-0.6 3.5-1.2 1.8-1.4 2.5-2.4 1-2.4 1-4.1c0-1.5-0.3-2.6-0.9-3.5s-1.4-1.6-2.3-2.1c-1-0.5-2.1-0.8-3.3-1-1.3-0.1-2.6-0.2-3.9-0.2z"/>
	<path d="m305.1 368.8h-16l-3.9 10.1h-10.1l18.6-47.9h7.4l18.7 47.9h-10.7l-4-10.1zm-13.2-8h10.9l-3.7-9.9-1.6-7.5h-0.3l-1.6 7.6-3.7 9.8z"/>
	<path d="m331.2 336.7h-5.4v-5.4h20.9v5.4h-5.4v36.7h5.4v5.4h-20.9v-5.4h5.4v-36.7z"/>
	<path d="m369.8 354.1l-4.1-7.1h-0.3l1.1 7.2v24.8h-9.5v-48h7.3l19.7 25.4 3.9 6.9h0.4l-1.1-7v-25h9.5v47.9h-7.3l-19.6-25.1z"/>
	<path d="m445.2 340.1h-15.1v38.8h-10.1v-38.8h-15.1v-8.8h40.3v8.8z"/>
	<path d="m457.3 336.7h-5.4v-5.4h20.9v5.4h-5.4v36.7h5.4v5.4h-20.9v-5.4h5.4v-36.7z"/>
	<path d="m495.9 354.1l-4.1-7.1h-0.3l1.1 7.2v24.8h-9.5v-48h7.3l19.7 25.4 3.9 6.9h0.4l-1.1-7v-25h9.5v47.9h-7.3l-19.6-25.1z"/>
	<path d="m552.8 353.9h19.4v21.4c-1 0.8-2.2 1.5-3.4 2.1s-2.6 1-3.9 1.4c-1.4 0.4-2.8 0.7-4.2 0.9-1.5 0.2-2.9 0.3-4.3 0.3-3.3 0-6.3-0.5-9.1-1.4-2.8-1-5.3-2.4-7.4-4.5-2.1-2-3.8-4.6-5-7.7s-1.8-6.8-1.8-11.2c0-4.5 0.7-8.3 2.2-11.5s3.3-5.7 5.7-7.7c2.3-2 4.9-3.4 7.8-4.3s5.7-1.3 8.6-1.3 5.5 0.2 7.8 0.6c2.2 0.4 4 0.8 5.3 1.3l-2.1 8.4c-1.2-0.4-2.6-0.7-4.1-1s-3.5-0.4-5.8-0.4c-2.1 0-4.1 0.3-5.8 0.9-1.8 0.6-3.3 1.5-4.6 2.8s-2.3 2.9-3.1 5c-0.7 2-1.1 4.5-1.1 7.4 0 2.8 0.4 5.2 1.1 7.2s1.7 3.6 3 4.9c1.2 1.3 2.7 2.2 4.3 2.8s3.4 0.9 5.2 0.9c1.2 0 2.5-0.1 3.7-0.4s2.3-0.7 3.2-1.3v-8.2l-11.3-1.1v-6.3z"/>
</g>
</svg>
