<?xml version="1.0" encoding="UTF-8" standalone="no"?>
<svg width="893px" height="277px" viewBox="0 0 893 277" version="1.1" xmlns="http://www.w3.org/2000/svg" xmlns:xlink="http://www.w3.org/1999/xlink" xmlns:sketch="http://www.bohemiancoding.com/sketch/ns">
    <!-- Generator: Sketch 3.3.2 (12043) - http://www.bohemiancoding.com/sketch -->
    <title>logo</title>
    <desc>Created with Sketch.</desc>
    <defs></defs>
    <g id="Page-1" stroke="none" stroke-width="1" fill="none" fill-rule="evenodd" sketch:type="MSPage">
        <g id="Artboard-1" sketch:type="MSArtboardGroup" transform="translate(-232.000000, -123.000000)">
            <g id="maloneyPainting" sketch:type="MSLayerGroup" transform="translate(-243.000000, -226.000000)">
                <g id="logo" transform="translate(474.000000, 316.000000)">
                    <path d="M255.675679,209.036864 C258.378502,210.781018 247.218458,245.664099 216.528339,272.524072 C207.024864,280.808803 178.252877,305.488583 134.746145,306.273453 C124.981107,306.447868 93.3319218,305.837414 64.9086862,285.430812 C55.3180239,278.541403 48.8661238,271.390371 44.5939197,266.50674 C25.8485342,245.489684 18.5247557,224.821458 15.8219327,216.362311 C11.7241042,203.281155 9.80597177,189.502338 11.3753529,189.0663 C13.6422367,188.368638 17.304126,214.792572 35.7879479,235.37359 C37.5317047,237.29216 66.4780673,268.861348 102.312269,265.285832 C127.596743,262.756809 130.648317,245.315268 157.850923,244.09436 C179.647883,243.135076 183.309772,254.123246 201.444843,251.943054 C234.837785,248.018707 252.711292,207.118294 255.675679,209.036864 L255.675679,209.036864 Z" id="Shape" fill="#79BACC" sketch:type="MSShapeGroup"></path>
                    <g id="Artboard-1" transform="translate(1.000000, 0.000000)">
                        <rect id="Rectangle-2" fill="#DA353E" sketch:type="MSShapeGroup" x="258.25038" y="168.310867" width="5.92877307" height="22.8484182"></rect>
                        <rect id="Rectangle-3" fill="#DA363E" sketch:type="MSShapeGroup" x="0.697502714" y="168.310867" width="5.92877307" height="22.8484182"></rect>
                        <path d="M132.438328,306.36066 C201.927036,306.36066 258.25038,250.024484 258.25038,180.519945 C258.25038,111.015406 201.927036,54.6792297 132.438328,54.6792297 C62.94962,54.6792297 6.62627579,111.015406 6.62627579,180.519945 C6.62627579,250.024484 62.94962,306.36066 132.438328,306.36066 L132.438328,306.36066 Z" id="Oval-2" stroke="#EE3A43" stroke-width="6" sketch:type="MSShapeGroup"></path>
                        <g id="brush" transform="translate(160.344089, 160.126216) rotate(27.000000) translate(-160.344089, -160.126216) translate(108.031386, 7.512736)">
                            <rect id="Rectangle-1" fill="#3A3838" sketch:type="MSShapeGroup" x="4.95605487e-14" y="212.525172" width="74.4584148" height="29.9994498"></rect>
                            <path d="M53.6205212,51.1909216 C53.5333333,50.8420908 53.6205212,49.4467675 53.0102063,47.7898212 C50.9176982,41.9469051 43.1579805,37.8481431 39.4089034,39.5050894 C38.8857763,39.7667125 38.2754615,40.1155433 37.4035831,40.1155433 C35.834202,40.0283356 34.3520087,38.6330124 33.8288817,36.976066 C33.3057546,35.3191197 34.0032573,33.8365887 34.177633,33.4877579 C35.1366992,31.4819807 36.9676439,31.2203576 38.1882736,30.2610729 C39.6704669,28.9529574 40.5423453,25.9006878 38.1882736,18.1392022 C35.5726384,20.1449794 31.997937,23.3716644 28.9463626,28.168088 C22.4072747,38.2841816 23.1919653,49.010729 22.4072747,54.9408528 C18.3094463,83.8066025 27.9001086,135.782393 28.9463626,142.933425 C29.6438654,147.729849 29.5566775,153.136726 28.9463626,156.101788 C27.8129207,161.944704 25.1972856,167.264374 23.3663409,170.83989 C17.8735071,181.304814 0.959066232,196.740578 0.959066232,196.740578 L0.959066232,207.118294 L75.0687296,207.118294 L75.0687296,196.740578 C76.4537252,194.786203 74.6657585,193.757187 74.1083277,192.057145 C71.921738,185.388526 59.6335772,179.522542 55.364278,173.020083 C50.9176982,166.392297 49.348317,159.415681 48.5636265,156.101788 C47.7789359,152.787895 47.8661238,147.729849 48.5636265,142.933425 C48.4764387,142.410179 53.7948969,103.428336 55.1899023,75.5218707 C55.7130293,64.9697387 54.4052117,55.9001376 53.6205212,51.1909216 Z" id="Path-2" fill="#3A3838" sketch:type="MSShapeGroup"></path>
                            <g id="SVGID_1_" transform="translate(101.225081, 0.436039)"></g>
                            <path d="M8.80597177,246.623384 L8.98034745,301.738652 C9.85751648,300.476459 4.29566168,300.51199 3.40032573,300.256121 C2.26688382,299.90729 2.72670775e-13,299.035213 2.72670775e-13,299.035213 L0.0871878393,246.536176 L8.80597177,246.623384 Z" id="Path-8" fill="#3A3838" sketch:type="MSShapeGroup"></path>
                            <path d="M23.0175896,246.623384 L23.0175896,303.744429 C24.0413427,302.215565 18.0664867,303.25166 17.8735071,303.221183 C16.304126,303.046768 13.2525516,302.436314 13.2525516,302.436314 L13.5141151,246.536176 L23.0175896,246.623384 Z" id="Path-9" fill="#3A3838" sketch:type="MSShapeGroup"></path>
                            <path d="M42.3732899,246.536176 L44.9017372,303.744429 C45.6635102,302.542289 35.0612507,304.354883 34.0032573,304.354883 C31.997937,304.354883 27.2897937,304.09326 27.2897937,304.09326 L27.7257329,246.536176 L42.3732899,246.536176 Z" id="Path-9_1_" fill="#3A3838" sketch:type="MSShapeGroup"></path>
                        </g>
                        <path d="M204.542671,50.6676754 C204.019544,51.6269601 203.060478,52.5862448 201.927036,52.9350757 C200.793594,53.2839065 199.137025,53.3711142 199.137025,53.3711142 L121.714224,201.449794 L155.804669,218.978542 L160.512812,209.821733 C167.459043,199.631607 154.271588,184.753495 153.712161,177.031637 C153.276221,170.83989 154.93279,157.148281 159.902497,151.305365 C164.959392,145.462448 192.07481,102.294635 192.07481,102.294635 C192.07481,102.294635 197.916395,93.1378267 199.921716,88.8646492 C201.229533,86.1612105 202.711726,82.8473177 204.019544,79.4462173 C206.112052,74.1265475 207.942997,69.0685007 207.942997,69.0685007 C207.942997,69.0685007 210.471444,60.0861073 211.43051,55.8129298 C212.040825,53.1094911 212.476764,48.0514443 212.476764,48.0514443 C212.825516,45.8712517 212.65114,44.2143054 212.476764,42.9933975 C211.692074,38.2841816 208.553312,33.9237964 208.553312,33.9237964 C206.809555,37.4993122 204.97861,41.1620358 203.147666,44.7375516 C204.891422,46.5689133 205.414549,48.9235213 204.542671,50.6676754 Z" id="Path-5" fill="#515151" sketch:type="MSShapeGroup"></path>
                        <path d="M119.44734,206.15901 L105.148534,232.408528 L139.936482,250.024484 L153.799349,223.338927 L119.44734,206.15901 L119.44734,206.15901 Z" id="Path-6" fill="#515151" sketch:type="MSShapeGroup"></path>
                        <path d="M103.230402,236.158459 L77.0740499,287.611004 C82.6540717,290.314443 89.1059718,293.105089 96.3425624,295.634113 C102.707275,297.814305 108.723236,299.471252 114.216069,300.69216 C122.062975,285.169188 129.997068,269.55901 137.843974,254.036039 L103.230402,236.158459 L103.230402,236.158459 Z" id="Path-7" fill="#515151" sketch:type="MSShapeGroup"></path>
                    </g>
                    <g id="text" transform="translate(289.591748, 156.101788)" fill="#D74B4B" sketch:type="MSShapeGroup">
                        <path d="M35.4854506,21.8019257 L36.4445168,13.1683631 L36.0957655,13.1683631 L33.2185668,19.7089409 L23.6279045,35.1447043 L20.9250814,35.1447043 L10.7241042,19.6217331 L7.93409338,13.2555708 L7.58534202,13.2555708 L8.80597177,21.714718 L8.80597177,42.557359 L0.523127036,42.557359 L0.523127036,1.04649243 L8.45722041,1.04649243 L20.4019544,20.2321871 L22.6688382,24.7669876 L22.9304017,24.7669876 L24.8485342,20.0577717 L36.2701412,1.04649243 L44.1170467,1.04649243 L44.1170467,42.557359 L35.3110749,42.557359 L35.3110749,21.8019257 L35.4854506,21.8019257 Z" id="Shape"></path>
                        <path d="M76.9868621,33.8365887 L63.0368078,33.8365887 L59.6364821,42.6445667 L50.8305103,42.6445667 L67.0474484,0.872077029 L73.4993485,0.872077029 L89.8034745,42.6445667 L80.4743757,42.6445667 L76.9868621,33.8365887 L76.9868621,33.8365887 Z M65.3908795,26.8599725 L74.894354,26.8599725 L71.6684039,18.2264099 L70.2733985,11.6858322 L70.011835,11.6858322 L68.6168295,18.3136176 L65.3908795,26.8599725 L65.3908795,26.8599725 Z" id="Shape"></path>
                        <path d="M124.940174,42.6445667 L96.4297503,42.6445667 L96.4297503,1.13370014 L105.148534,1.13370014 L105.148534,34.9702889 L124.940174,34.9702889 L124.940174,42.6445667 L124.940174,42.6445667 Z" id="Shape"></path>
                        <path d="M129.12519,21.8891334 C129.12519,18.488033 129.561129,15.4357634 130.433008,12.7323246 C131.304886,10.0288858 132.525516,7.76148556 134.182085,5.9301238 C135.838654,4.09876204 137.843974,2.70343879 140.198046,1.74415406 C142.552117,0.784869326 145.25494,0.261623109 148.219327,0.261623109 C151.445277,0.261623109 154.235288,0.784869326 156.589359,1.83136176 C158.943431,2.8778542 160.948751,4.36038514 162.60532,6.27895461 C164.174701,8.19752407 165.395331,10.4649243 166.180022,13.0811554 C166.964712,15.6973865 167.400651,18.6624484 167.400651,21.8891334 C167.400651,25.2902338 166.964712,28.3425034 166.092834,31.0459422 C165.220955,33.749381 163.913138,36.0167813 162.256569,37.8481431 C160.6,39.6795048 158.59468,41.0748281 156.240608,42.0341128 C153.886536,42.9933975 151.183713,43.5166437 148.219327,43.5166437 C144.993377,43.5166437 142.203366,42.9933975 139.849294,41.9469051 C137.495223,40.9004127 135.489902,39.4178817 133.833333,37.4993122 C132.263952,35.5807428 131.043322,33.3133425 130.258632,30.6971114 C129.561129,27.9936726 129.12519,25.1158184 129.12519,21.8891334 L129.12519,21.8891334 Z M138.454289,21.8891334 C138.454289,23.9821183 138.628664,25.8134801 139.064604,27.5576341 C139.500543,29.2145805 140.02367,30.6971114 140.80836,31.9180193 C141.593051,33.1389271 142.639305,34.0982118 143.859935,34.7958735 C145.080565,35.4935351 146.562758,35.8423659 148.306515,35.8423659 C151.445277,35.8423659 153.886536,34.7958735 155.630293,32.6156809 C157.37405,30.522696 158.245928,26.9471802 158.245928,21.9763411 C158.245928,19.970564 158.071553,18.1392022 157.722801,16.4822558 C157.37405,14.8253095 156.763735,13.3427785 155.979045,12.034663 C155.194354,10.8137552 154.1481,9.85447043 152.92747,9.1568088 C151.70684,8.45914718 150.137459,8.11031637 148.393702,8.11031637 C145.342128,8.11031637 142.900869,9.24401651 141.157112,11.4242091 C139.326167,13.5171939 138.454289,17.0927098 138.454289,21.8891334 L138.454289,21.8891334 Z" id="Shape"></path>
                        <path d="M185.535722,21.0170564 L181.961021,14.8253095 L181.699457,14.8253095 L182.658523,21.1042641 L182.658523,42.7317744 L174.375679,42.7317744 L174.375679,0.872077029 L180.740391,0.872077029 L197.916395,23.0228336 L201.316721,29.0401651 L201.665472,29.0401651 L200.706406,22.9356259 L200.706406,1.13370014 L208.989251,1.13370014 L208.989251,42.9061898 L202.624539,42.9061898 L185.535722,21.0170564 L185.535722,21.0170564 Z" id="Shape"></path>
                        <path d="M219.364604,1.13370014 L246.13127,1.13370014 L246.13127,8.80797799 L228.170575,8.80797799 L228.170575,17.7903714 L244.474701,17.7903714 L244.474701,25.4646492 L228.170575,25.4646492 L228.170575,34.7958735 L246.392834,34.7958735 L246.392834,42.4701513 L219.364604,42.4701513 L219.364604,1.13370014 L219.364604,1.13370014 Z" id="Shape"></path>
                        <path d="M266.446037,27.3832187 L251.624104,1.13370014 L262.086645,1.13370014 L270.36949,16.3950481 L271.328556,20.842641 L271.590119,20.842641 L272.636374,16.3078404 L280.657655,1.22090784 L290.073941,1.22090784 L275.252009,27.3832187 L275.252009,42.7317744 L266.446037,42.7317744 L266.446037,27.3832187 L266.446037,27.3832187 Z" id="Shape"></path>
                        <path d="M313.876221,1.56973865 C315.619978,1.22090784 317.625299,1.04649243 319.804995,0.784869326 C321.984691,0.61045392 324.164387,0.523246217 326.344083,0.523246217 C328.523779,0.523246217 330.790662,0.697661623 333.057546,1.04649243 C335.32443,1.39532325 337.32975,2.09298487 339.160695,3.0522696 C340.99164,4.09876204 342.473833,5.49408528 343.607275,7.23823934 C344.740717,9.0696011 345.351031,11.4242091 345.351031,14.389271 C345.351031,17.0055021 344.827904,19.1856946 343.868838,21.1042641 C342.909772,22.9356259 341.601954,24.4181568 339.945385,25.5518569 C338.288817,26.6855571 336.457872,27.5576341 334.365364,28.0808803 C332.272856,28.6041265 330.09316,28.8657497 327.913464,28.8657497 L326.86721,28.8657497 L325.385016,28.8657497 C324.861889,28.8657497 324.338762,28.778542 323.902823,28.778542 C323.466884,28.778542 323.030945,28.6913343 322.856569,28.6913343 L322.856569,42.6445667 L313.876221,42.6445667 L313.876221,1.56973865 L313.876221,1.56973865 Z M326.86721,8.28473177 C325.995331,8.28473177 325.210641,8.28473177 324.42595,8.37193948 C323.64126,8.37193948 323.030945,8.45914718 322.595005,8.63356259 L322.595005,20.9298487 C322.769381,20.9298487 323.030945,21.0170564 323.379696,21.0170564 C323.728447,21.0170564 324.077199,21.1042641 324.513138,21.1042641 C324.949077,21.1042641 325.297828,21.1042641 325.64658,21.1914718 L326.43127,21.1914718 C327.564712,21.1914718 328.698154,21.1042641 329.831596,20.9298487 C330.965038,20.7554333 332.011292,20.4066025 332.88317,19.8833563 C333.755049,19.36011 334.452552,18.6624484 335.062866,17.7903714 C335.673181,16.9182944 335.934745,15.6973865 335.934745,14.2148556 C335.934745,12.90674 335.673181,11.9474553 335.150054,11.162586 C334.626927,10.3777166 333.929425,9.76726272 333.144734,9.33122421 C332.272856,8.89518569 331.313789,8.63356259 330.267535,8.45914718 C329.134093,8.37193948 328.000651,8.28473177 326.86721,8.28473177 L326.86721,8.28473177 Z" id="Shape"></path>
                        <path d="M370.635505,33.8365887 L356.685451,33.8365887 L353.285125,42.6445667 L344.479153,42.6445667 L360.696091,0.872077029 L367.147991,0.872077029 L383.452117,42.6445667 L374.123018,42.6445667 L370.635505,33.8365887 L370.635505,33.8365887 Z M359.12671,26.8599725 L368.630185,26.8599725 L365.404235,18.2264099 L364.009229,11.6858322 L363.747666,11.6858322 L362.35266,18.3136176 L359.12671,26.8599725 L359.12671,26.8599725 Z" id="Shape"></path>
                        <path d="M393.391531,5.84291609 L388.683388,5.84291609 L388.683388,1.13370014 L406.905646,1.13370014 L406.905646,5.84291609 L402.197503,5.84291609 L402.197503,37.8481431 L406.905646,37.8481431 L406.905646,42.557359 L388.683388,42.557359 L388.683388,37.8481431 L393.391531,37.8481431 L393.391531,5.84291609 L393.391531,5.84291609 Z" id="Shape"></path>
                        <path d="M427.046037,21.0170564 L423.471336,14.8253095 L423.209772,14.8253095 L424.168838,21.1042641 L424.168838,42.7317744 L415.885993,42.7317744 L415.885993,0.872077029 L422.250706,0.872077029 L439.42671,23.0228336 L442.827036,29.0401651 L443.175787,29.0401651 L442.216721,22.9356259 L442.216721,1.13370014 L450.499566,1.13370014 L450.499566,42.9061898 L444.134853,42.9061898 L427.046037,21.0170564 L427.046037,21.0170564 Z" id="Shape"></path>
                        <path d="M492.785668,8.80797799 L479.620304,8.80797799 L479.620304,42.6445667 L470.814332,42.6445667 L470.814332,8.80797799 L457.648969,8.80797799 L457.648969,1.13370014 L492.785668,1.13370014 L492.785668,8.80797799 L492.785668,8.80797799 Z" id="Shape"></path>
                        <path d="M503.335396,5.84291609 L498.627253,5.84291609 L498.627253,1.13370014 L516.849511,1.13370014 L516.849511,5.84291609 L512.141368,5.84291609 L512.141368,37.8481431 L516.849511,37.8481431 L516.849511,42.557359 L498.627253,42.557359 L498.627253,37.8481431 L503.335396,37.8481431 L503.335396,5.84291609 L503.335396,5.84291609 Z" id="Shape"></path>
                        <path d="M536.989902,21.0170564 L533.415201,14.8253095 L533.153637,14.8253095 L534.112704,21.1042641 L534.112704,42.7317744 L525.829859,42.7317744 L525.829859,0.872077029 L532.194571,0.872077029 L549.370575,23.0228336 L552.770901,29.0401651 L553.119653,29.0401651 L552.160586,22.9356259 L552.160586,1.13370014 L560.443431,1.13370014 L560.443431,42.9061898 L554.078719,42.9061898 L536.989902,21.0170564 L536.989902,21.0170564 Z" id="Shape"></path>
                        <path d="M586.599783,20.842641 L603.514224,20.842641 L603.514224,39.5050894 C602.642345,40.202751 601.596091,40.813205 600.549837,41.3364512 C599.503583,41.8596974 598.282953,42.2085282 597.149511,42.557359 C595.928882,42.9061898 594.708252,43.1678129 593.487622,43.3422283 C592.179805,43.5166437 590.959175,43.6038514 589.738545,43.6038514 C586.861346,43.6038514 584.245711,43.1678129 581.804452,42.3829436 C579.363192,41.5108666 577.183496,40.2899587 575.352552,38.458597 C573.521607,36.7144429 572.039414,34.4470426 570.99316,31.7436039 C569.946906,29.0401651 569.423779,25.8134801 569.423779,21.9763411 C569.423779,18.0519945 570.034093,14.7381018 571.341911,11.9474553 C572.649729,9.1568088 574.21911,6.97661623 576.311618,5.23246217 C578.316938,3.48830812 580.583822,2.26740028 583.112269,1.48253095 C585.640717,0.697661623 588.081976,0.348830812 590.610423,0.348830812 C593.138871,0.348830812 595.405755,0.523246217 597.411075,0.872077029 C599.329207,1.22090784 600.898588,1.56973865 602.03203,2.00577717 L600.201086,9.33122421 C599.154832,8.9823934 597.934202,8.72077029 596.626384,8.45914718 C595.318567,8.19752407 593.57481,8.11031637 591.56949,8.11031637 C589.738545,8.11031637 587.994788,8.37193948 586.512595,8.89518569 C584.943214,9.41843191 583.635396,10.2033012 582.501954,11.3370014 C581.368512,12.4707015 580.496634,13.8660248 579.799131,15.6973865 C579.188817,17.4415406 578.840065,19.6217331 578.840065,22.1507565 C578.840065,24.5925722 579.188817,26.6855571 579.799131,28.4297111 C580.409446,30.1738652 581.281325,31.5691884 582.414767,32.7028886 C583.461021,33.8365887 584.768838,34.621458 586.163844,35.1447043 C587.558849,35.6679505 589.12823,35.9295736 590.697611,35.9295736 C591.743865,35.9295736 592.877307,35.8423659 593.923561,35.5807428 C594.969815,35.3191197 595.928882,34.9702889 596.713572,34.4470426 L596.713572,27.296011 L586.861346,26.3367263 L586.861346,20.842641 L586.599783,20.842641 Z" id="Shape"></path>
                    </g>
                </g>
            </g>
        </g>
    </g>
</svg>