<?xml version="1.0" encoding="UTF-8" standalone="no"?>
<svg width="1024px" height="317px" viewBox="0 0 1024 317" version="1.1" xmlns="http://www.w3.org/2000/svg" xmlns:xlink="http://www.w3.org/1999/xlink" xmlns:sketch="http://www.bohemiancoding.com/sketch/ns">
    <!-- Generator: Sketch 3.3.2 (12043) - http://www.bohemiancoding.com/sketch -->
    <title>logo</title>
    <desc>Created with Sketch.</desc>
    <defs></defs>
    <g id="Page-1" stroke="none" stroke-width="1" fill="none" fill-rule="evenodd" sketch:type="MSPage">
        <g id="Artboard-1" sketch:type="MSArtboardGroup" transform="translate(-167.000000, -104.000000)">
            <g id="maloneyPainting" sketch:type="MSLayerGroup" transform="translate(-3.000000, -229.000000)">
                <g id="logo" transform="translate(170.000000, 295.000000)">
                    <path d="M292.1,239.7 C295.2,241.7 282.4,281.7 247.2,312.5 C236.3,322 203.3,350.3 153.4,351.2 C142.2,351.4 105.9,350.7 73.3,327.3 C62.3,319.4 54.9,311.2 50,305.6 C28.5,281.5 20.1,257.8 17,248.1 C12.3,233.1 10.1,217.3 11.9,216.8 C14.5,216 18.7,246.3 39.9,269.9 C41.9,272.1 75.1,308.3 116.2,304.2 C145.2,301.3 148.7,281.3 179.9,279.9 C204.9,278.8 209.1,291.4 229.9,288.9 C268.2,284.4 288.7,237.5 292.1,239.7 L292.1,239.7 Z" id="Shape" fill="#79BACC" sketch:type="MSShapeGroup"></path>
                    <g id="Artboard-1">
                        <rect id="Rectangle-2" fill="#DA353E" sketch:type="MSShapeGroup" x="296.2" y="193" width="6.8" height="26.2"></rect>
                        <rect id="Rectangle-3" fill="#DA363E" sketch:type="MSShapeGroup" x="0.8" y="193" width="6.8" height="26.2"></rect>
                        <path d="M151.9,351.3 C231.6,351.3 296.2,286.7 296.2,207 C296.2,127.3 231.6,62.7 151.9,62.7 C72.2,62.7 7.6,127.3 7.6,207 C7.6,286.7 72.2,351.3 151.9,351.3 L151.9,351.3 Z" id="Oval-2" stroke="#EE3A43" stroke-width="6" sketch:type="MSShapeGroup"></path>
                        <g id="brush" transform="translate(183.906484, 183.614762) rotate(27.000000) translate(-183.906484, -183.614762) translate(123.906484, 8.614762)">
                            <rect id="Rectangle-1" fill="#3A3838" sketch:type="MSShapeGroup" x="5.68434189e-14" y="243.7" width="85.4" height="34.4"></rect>
                            <path d="M61.5,58.7 C61.4,58.3 61.5,56.7 60.8,54.8 C58.4,48.1 49.5,43.4 45.2,45.3 C44.6,45.6 43.9,46 42.9,46 C41.1,45.9 39.4,44.3 38.8,42.4 C38.2,40.5 39,38.8 39.2,38.4 C40.3,36.1 42.4,35.8 43.8,34.7 C45.5,33.2 46.5,29.7 43.8,20.8 C40.8,23.1 36.7,26.8 33.2,32.3 C25.7,43.9 26.6,56.2 25.7,63 C21,96.1 32,155.7 33.2,163.9 C34,169.4 33.9,175.6 33.2,179 C31.9,185.7 28.9,191.8 26.8,195.9 C20.5,207.9 1.1,225.6 1.1,225.6 L1.1,237.5 L86.1,237.5 L86.1,225.6 C87.6885192,223.358942 85.6378127,222.178982 84.998468,220.229565 C82.4905613,212.582742 68.3966683,205.85629 63.5,198.4 C58.4,190.8 56.6,182.8 55.7,179 C54.8,175.2 54.9,169.4 55.7,163.9 C55.6,163.3 61.7,118.6 63.3,86.6 C63.9,74.5 62.4,64.1 61.5,58.7 Z" id="Path-2" fill="#3A3838" sketch:type="MSShapeGroup"></path>
                            <g id="SVGID_1_" transform="translate(116.100000, 0.500000)"></g>
                            <path d="M10.1,282.8 L10.3,346 C11.3060681,344.552659 4.92690461,344.593401 3.9,344.3 C2.6,343.9 3.12638804e-13,342.9 3.12638804e-13,342.9 L0.1,282.7 L10.1,282.8 Z" id="Path-8" fill="#3A3838" sketch:type="MSShapeGroup"></path>
                            <path d="M26.4,282.8 L26.4,348.3 C27.5741926,346.546871 20.7213378,347.734948 20.5,347.7 C18.7,347.5 15.2,346.8 15.2,346.8 L15.5,282.7 L26.4,282.8 Z" id="Path-9" fill="#3A3838" sketch:type="MSShapeGroup"></path>
                            <path d="M48.6,282.7 L51.5,348.3 C52.3737147,346.921521 40.2134643,349 39,349 C36.7,349 31.3,348.7 31.3,348.7 L31.8,282.7 L48.6,282.7 Z" id="Path-9_1_" fill="#3A3838" sketch:type="MSShapeGroup"></path>
                        </g>
                        <path d="M234.6,58.1 C234,59.2 232.9,60.3 231.6,60.7 C230.3,61.1 228.4,61.2 228.4,61.2 L139.6,231 L178.7,251.1 L184.1,240.6 C192.066972,228.915108 176.941635,211.85456 176.3,203 C175.8,195.9 177.7,180.2 183.4,173.5 C189.2,166.8 220.3,117.3 220.3,117.3 C220.3,117.3 227,106.8 229.3,101.9 C230.8,98.8 232.5,95 234,91.1 C236.4,85 238.5,79.2 238.5,79.2 C238.5,79.2 241.4,68.9 242.5,64 C243.2,60.9 243.7,55.1 243.7,55.1 C244.1,52.6 243.9,50.7 243.7,49.3 C242.8,43.9 239.2,38.9 239.2,38.9 C237.2,43 235.1,47.2 233,51.3 C235,53.4 235.6,56.1 234.6,58.1 Z" id="Path-5" fill="#515151" sketch:type="MSShapeGroup"></path>
                        <path d="M137,236.4 L120.6,266.5 L160.5,286.7 L176.4,256.1 L137,236.4 L137,236.4 Z" id="Path-6" fill="#515151" sketch:type="MSShapeGroup"></path>
                        <path d="M118.4,270.8 L88.4,329.8 C94.8,332.9 102.2,336.1 110.5,339 C117.8,341.5 124.7,343.4 131,344.8 C140,327 149.1,309.1 158.1,291.3 L118.4,270.8 L118.4,270.8 Z" id="Path-7" fill="#515151" sketch:type="MSShapeGroup"></path>
                    </g>
                    <g id="Group" transform="translate(331.000000, 179.000000)" fill="#D74B4B" sketch:type="MSShapeGroup">
                        <path d="M40.7,25 L41.8,15.1 L41.4,15.1 L38.1,22.6 L27.1,40.3 L24,40.3 L12.3,22.5 L9.1,15.2 L8.7,15.2 L10.1,24.9 L10.1,48.8 L0.6,48.8 L0.6,1.2 L9.7,1.2 L23.4,23.2 L26,28.4 L26.3,28.4 L28.5,23 L41.6,1.2 L50.6,1.2 L50.6,48.8 L40.5,48.8 L40.5,25 L40.7,25 Z" id="Shape"></path>
                        <path d="M88.3,38.8 L72.3,38.8 L68.4,48.9 L58.3,48.9 L76.9,1 L84.3,1 L103,48.9 L92.3,48.9 L88.3,38.8 L88.3,38.8 Z M75,30.8 L85.9,30.8 L82.2,20.9 L80.6,13.4 L80.3,13.4 L78.7,21 L75,30.8 L75,30.8 Z" id="Shape"></path>
                        <path d="M143.3,48.9 L110.6,48.9 L110.6,1.3 L120.6,1.3 L120.6,40.1 L143.3,40.1 L143.3,48.9 L143.3,48.9 Z" id="Shape"></path>
                        <path d="M148.1,25.1 C148.1,21.2 148.6,17.7 149.6,14.6 C150.6,11.5 152,8.9 153.9,6.8 C155.8,4.7 158.1,3.1 160.8,2 C163.5,0.9 166.6,0.3 170,0.3 C173.7,0.3 176.9,0.9 179.6,2.1 C182.3,3.3 184.6,5 186.5,7.2 C188.3,9.4 189.7,12 190.6,15 C191.5,18 192,21.4 192,25.1 C192,29 191.5,32.5 190.5,35.6 C189.5,38.7 188,41.3 186.1,43.4 C184.2,45.5 181.9,47.1 179.2,48.2 C176.5,49.3 173.4,49.9 170,49.9 C166.3,49.9 163.1,49.3 160.4,48.1 C157.7,46.9 155.4,45.2 153.5,43 C151.7,40.8 150.3,38.2 149.4,35.2 C148.6,32.1 148.1,28.8 148.1,25.1 L148.1,25.1 Z M158.8,25.1 C158.8,27.5 159,29.6 159.5,31.6 C160,33.5 160.6,35.2 161.5,36.6 C162.4,38 163.6,39.1 165,39.9 C166.4,40.7 168.1,41.1 170.1,41.1 C173.7,41.1 176.5,39.9 178.5,37.4 C180.5,35 181.5,30.9 181.5,25.2 C181.5,22.9 181.3,20.8 180.9,18.9 C180.5,17 179.8,15.3 178.9,13.8 C178,12.4 176.8,11.3 175.4,10.5 C174,9.7 172.2,9.3 170.2,9.3 C166.7,9.3 163.9,10.6 161.9,13.1 C159.8,15.5 158.8,19.6 158.8,25.1 L158.8,25.1 Z" id="Shape"></path>
                        <path d="M212.8,24.1 L208.7,17 L208.4,17 L209.5,24.2 L209.5,49 L200,49 L200,1 L207.3,1 L227,26.4 L230.9,33.3 L231.3,33.3 L230.2,26.3 L230.2,1.3 L239.7,1.3 L239.7,49.2 L232.4,49.2 L212.8,24.1 L212.8,24.1 Z" id="Shape"></path>
                        <path d="M251.6,1.3 L282.3,1.3 L282.3,10.1 L261.7,10.1 L261.7,20.4 L280.4,20.4 L280.4,29.2 L261.7,29.2 L261.7,39.9 L282.6,39.9 L282.6,48.7 L251.6,48.7 L251.6,1.3 L251.6,1.3 Z" id="Shape"></path>
                        <path d="M305.6,31.4 L288.6,1.3 L300.6,1.3 L310.1,18.8 L311.2,23.9 L311.5,23.9 L312.7,18.7 L321.9,1.4 L332.7,1.4 L315.7,31.4 L315.7,49 L305.6,49 L305.6,31.4 L305.6,31.4 Z" id="Shape"></path>
                        <path d="M360,1.8 C362,1.4 364.3,1.2 366.8,0.9 C369.3,0.7 371.8,0.6 374.3,0.6 C376.8,0.6 379.4,0.8 382,1.2 C384.6,1.6 386.9,2.4 389,3.5 C391.1,4.7 392.8,6.3 394.1,8.3 C395.4,10.4 396.1,13.1 396.1,16.5 C396.1,19.5 395.5,22 394.4,24.2 C393.3,26.3 391.8,28 389.9,29.3 C388,30.6 385.9,31.6 383.5,32.2 C381.1,32.8 378.6,33.1 376.1,33.1 L374.9,33.1 L373.2,33.1 C372.6,33.1 372,33 371.5,33 C371,33 370.5,32.9 370.3,32.9 L370.3,48.9 L360,48.9 L360,1.8 L360,1.8 Z M374.9,9.5 C373.9,9.5 373,9.5 372.1,9.6 C371.2,9.6 370.5,9.7 370,9.9 L370,24 C370.2,24 370.5,24.1 370.9,24.1 C371.3,24.1 371.7,24.2 372.2,24.2 C372.7,24.2 373.1,24.2 373.5,24.3 L374.4,24.3 C375.7,24.3 377,24.2 378.3,24 C379.6,23.8 380.8,23.4 381.8,22.8 C382.8,22.2 383.6,21.4 384.3,20.4 C385,19.4 385.3,18 385.3,16.3 C385.3,14.8 385,13.7 384.4,12.8 C383.8,11.9 383,11.2 382.1,10.7 C381.1,10.2 380,9.9 378.8,9.7 C377.5,9.6 376.2,9.5 374.9,9.5 L374.9,9.5 Z" id="Shape"></path>
                        <path d="M425.1,38.8 L409.1,38.8 L405.2,48.9 L395.1,48.9 L413.7,1 L421.1,1 L439.8,48.9 L429.1,48.9 L425.1,38.8 L425.1,38.8 Z M411.9,30.8 L422.8,30.8 L419.1,20.9 L417.5,13.4 L417.2,13.4 L415.6,21 L411.9,30.8 L411.9,30.8 Z" id="Shape"></path>
                        <path d="M451.2,6.7 L445.8,6.7 L445.8,1.3 L466.7,1.3 L466.7,6.7 L461.3,6.7 L461.3,43.4 L466.7,43.4 L466.7,48.8 L445.8,48.8 L445.8,43.4 L451.2,43.4 L451.2,6.7 L451.2,6.7 Z" id="Shape"></path>
                        <path d="M489.8,24.1 L485.7,17 L485.4,17 L486.5,24.2 L486.5,49 L477,49 L477,1 L484.3,1 L504,26.4 L507.9,33.3 L508.3,33.3 L507.2,26.3 L507.2,1.3 L516.7,1.3 L516.7,49.2 L509.4,49.2 L489.8,24.1 L489.8,24.1 Z" id="Shape"></path>
                        <path d="M565.2,10.1 L550.1,10.1 L550.1,48.9 L540,48.9 L540,10.1 L524.9,10.1 L524.9,1.3 L565.2,1.3 L565.2,10.1 L565.2,10.1 Z" id="Shape"></path>
                        <path d="M577.3,6.7 L571.9,6.7 L571.9,1.3 L592.8,1.3 L592.8,6.7 L587.4,6.7 L587.4,43.4 L592.8,43.4 L592.8,48.8 L571.9,48.8 L571.9,43.4 L577.3,43.4 L577.3,6.7 L577.3,6.7 Z" id="Shape"></path>
                        <path d="M615.9,24.1 L611.8,17 L611.5,17 L612.6,24.2 L612.6,49 L603.1,49 L603.1,1 L610.4,1 L630.1,26.4 L634,33.3 L634.4,33.3 L633.3,26.3 L633.3,1.3 L642.8,1.3 L642.8,49.2 L635.5,49.2 L615.9,24.1 L615.9,24.1 Z" id="Shape"></path>
                        <path d="M672.8,23.9 L692.2,23.9 L692.2,45.3 C691.2,46.1 690,46.8 688.8,47.4 C687.6,48 686.2,48.4 684.9,48.8 C683.5,49.2 682.1,49.5 680.7,49.7 C679.2,49.9 677.8,50 676.4,50 C673.1,50 670.1,49.5 667.3,48.6 C664.5,47.6 662,46.2 659.9,44.1 C657.8,42.1 656.1,39.5 654.9,36.4 C653.7,33.3 653.1,29.6 653.1,25.2 C653.1,20.7 653.8,16.9 655.3,13.7 C656.8,10.5 658.6,8 661,6 C663.3,4 665.9,2.6 668.8,1.7 C671.7,0.8 674.5,0.4 677.4,0.4 C680.3,0.4 682.9,0.6 685.2,1 C687.4,1.4 689.2,1.8 690.5,2.3 L688.4,10.7 C687.2,10.3 685.8,10 684.3,9.7 C682.8,9.4 680.8,9.3 678.5,9.3 C676.4,9.3 674.4,9.6 672.7,10.2 C670.9,10.8 669.4,11.7 668.1,13 C666.8,14.3 665.8,15.9 665,18 C664.3,20 663.9,22.5 663.9,25.4 C663.9,28.2 664.3,30.6 665,32.6 C665.7,34.6 666.7,36.2 668,37.5 C669.2,38.8 670.7,39.7 672.3,40.3 C673.9,40.9 675.7,41.2 677.5,41.2 C678.7,41.2 680,41.1 681.2,40.8 C682.4,40.5 683.5,40.1 684.4,39.5 L684.4,31.3 L673.1,30.2 L673.1,23.9 L672.8,23.9 Z" id="Shape"></path>
                    </g>
                </g>
            </g>
        </g>
    </g>
</svg>