<?xml version="1.0" standalone="no"?>
<!DOCTYPE svg PUBLIC "-//W3C//DTD SVG 1.1//EN" "http://www.w3.org/Graphics/SVG/1.1/DTD/svg11.dtd">
<svg width="100%" height="100%" viewBox="0 0 1024 320" version="1.1" xmlns="http://www.w3.org/2000/svg" xmlns:xlink="http://www.w3.org/1999/xlink" xml:space="preserve" style="fill-rule:evenodd;clip-rule:evenodd;stroke-linejoin:round;stroke-miterlimit:1.41421;">
    <g id="hero">
        <g id="mountains">
            <path id="Triangle-1-Copy" d="M247.977,219.606L281.166,261.87L365.744,320.317L93.1555,319.883L184.27,257.408L247.977,219.606Z" style="fill:rgb(180,180,180);"/>
            <path id="Triangle-1-Copy1" d="M373.731,218.992L406.92,261.257L491.498,319.704L218.909,319.27L310.024,256.795L373.731,218.992Z" style="fill:rgb(154,154,154);"/>
            <path id="Triangle-1-Copy-4" d="M-1.71868,199.547C0.820647,199.461 52.3884,173.262 52.3884,173.262L164.372,222.538L296.888,320.732L-0.771473,318.188L-1.71868,199.547Z" style="fill:rgb(139,138,138);"/>
            <path id="Triangle-1-Copy-7" d="M869.953,255.991L955.988,323.399L783.918,323.399L823.291,280.714L869.953,255.991Z" style="fill:rgb(139,138,138);"/>
            <path id="Triangle-1-Copy-8" d="M955.988,267.648L1027.14,323.399L884.831,323.399L955.988,267.648Z" style="fill:rgb(103,103,103);"/>
            <path id="Triangle-1-Copy-5" d="M-0.620205,319.748L-2.35274,215.474L71.1942,229.977L133.61,275.545L175.672,321.138L-0.620205,319.748Z" style="fill:rgb(103,103,103);"/>
            <path id="Triangle-1-Copy-6" d="M684.884,209.188L805.732,238.723L883.766,321.93L575.049,320.191L684.884,209.188Z" style="fill:rgb(131,131,131);"/>
            <path id="Triangle-1" d="M626.153,182.681L712.302,270.726L858.059,319.613L758.483,320.221L668.319,320.606L332.07,320.857L272.73,320.583L335.086,278.18L430.704,256.342L506.241,192.916L626.153,182.681Z" style="fill:rgb(103,103,103);"/>
        </g>
    </g>
</svg>
