<?xml version="1.0" encoding="UTF-8" standalone="no"?>
<svg width="1024px" height="400px" viewBox="0 0 1024 400" version="1.1" xmlns="http://www.w3.org/2000/svg" xmlns:xlink="http://www.w3.org/1999/xlink" xmlns:sketch="http://www.bohemiancoding.com/sketch/ns">
    <!-- Generator: Sketch 3.3.2 (12043) - http://www.bohemiancoding.com/sketch -->
    <title>hero</title>
    <desc>Created with Sketch.</desc>
    <defs></defs>
    <g id="Page-1" stroke="none" stroke-width="1" fill="none" fill-rule="evenodd" sketch:type="MSPage">
        <g id="hero" sketch:type="MSArtboardGroup">
            <rect id="bg" fill="#D6F2F5" sketch:type="MSShapeGroup" x="0" y="0" width="1025" height="404"></rect>
            <g id="rky-mtns" sketch:type="MSLayerGroup" transform="translate(469.000000, 148.000000)">
                <g id="mtns-bg" transform="translate(0.000000, 93.962963)" sketch:type="MSShapeGroup">
                    <path d="M0.307932434,159.259259 L34.0840768,104.526331 L53.4371637,74.963831 L78.2770467,122.586082 L107.427984,98.9211516 L124.706415,74.963831 L157.577424,18.8840422 L177.941401,68.9480613 L202.781284,52.0143229 L356.679071,143.003617 L422.060281,117.043113 L494.119581,48.0701678 L499.223794,57.156033 L522.116549,0 L546.639168,43.6687645 L551.814921,55.2617188 L551.814921,163.240741 L0.307932434,159.259259 Z" fill="#EAF8F9"></path>
                    <path d="M498.443076,50.0235822 L490.206661,50.0235822 L481.945363,70.6899595 L508.505313,97.8884549 L541.780678,159.259259 L555,159.259259 L555,60.8684534 L555,50.0235822 L524.172542,2.16804109 L498.443076,50.0235822 Z" id="Path-17" fill="#FFFFFD"></path>
                    <path d="M490.998265,50.3237486 L495.522384,76.6886212 L536.903526,102.70667 L554.944012,133.273872 L554.944012,78.3745298 L554.356141,60.2867839 L554.944012,45.4775391 L519.631316,78.3745298 L490.998265,50.3237486 Z" id="Path-18" fill="#F9F9F9"></path>
                    <path d="M62.7171275,158.73669 L82.3968094,126.855288 L88.7109795,123.404152 L107.594392,100.37377 L126.636436,69.7661314 L132.449827,70.2529297 L156.09686,23.562283 L182.061163,67.7613932 L188.257137,86.4525825 L158.942903,159.259259 L62.7171275,158.73669 Z" id="Path-20" fill="#F6FCFC"></path>
                    <path d="M64.9581914,157.39294 L84.3112782,125.472656 L111.925664,159.041522 L145.854219,134.20081 L155.764045,142.051794 L206.980362,54.8946759 L209.754865,66.3476562 L157.767161,160.055556 L64.9581914,157.39294 Z" id="Path-21" fill="#F4F8F9"></path>
                    <path d="M125.916372,70.3462457 L134.384513,98.8791594 L147.3099,117.702546 L147.3099,159.259259 L218.062819,59.2198712 L206.246301,48.1852575 L180.061158,70.1362847 L162.15131,84.300094 L153.77337,94.1542607 L125.916372,70.3462457 Z" id="Path-19" fill="#F3F7F8"></path>
                </g>
                <path d="M158.930461,253.222222 L189.605508,203.998047 L195.313145,193.932364 L203.509124,171.626736 L221.490512,136.353299 L242.479684,104.675637 L249.325738,91.9442274 L254.206,82.4633247 L271.254259,105.422164 L276.234056,117.770978 L282.495348,129.043547 L284.983691,138.900825 L289.133003,148.207538 L311.916893,100.659939 L320.181302,77.8006366 L327.86095,66.8702257 L337.540604,41.2798756 L343.904541,29.4194155 L352.89679,4.20543981 L364.72575,17.3474392 L377.658912,36.6109664 L387.406995,62.7207755 L400.859599,77.7353154 L411.472382,98.1030816 L422.259348,123.177083 L433.708836,146.285229 L443.911042,122.906467 L450.13812,109.829789 L463.41654,121.970197 L476.383917,143.100043 L481.363713,151.265191 L489.385508,164.441406 L498.203573,177.620732 L509.13362,194.703776 L513.457115,206.287399 L524.247192,222.020472 L537.245673,241.318215 L544.648494,253.222222 L158.930461,253.222222 Z" id="mountains-frg" fill="#677383" sketch:type="MSShapeGroup"></path>
                <g id="right" transform="translate(422.022956, 109.092593)" sketch:type="MSShapeGroup">
                    <path d="M30.5716253,70.1720558 L44.8173884,95.2724971 L45.2326306,99.1995443 L50.1782121,104.422128 L61.1580252,115.470739 L68.5935048,124.964084 L71.3431237,130.340639 L79.9014681,146.338108 L127.290403,147.202836 L118.005774,131.346897 L107.268574,115.18146 L94.1627833,96.2989728 L80.0554343,67.9620226 L64.7381285,46.0716508 L60.6059241,42.0606192 L33.4596583,58.453125 L30.5716253,70.1720558 Z" id="Path-3" fill="#546173"></path>
                    <path d="M0.132193216,60.9197772 L12.3033004,81.3404225 L23.1960215,68.9760561 L28.018741,73.7491681 L42.3858108,51.4279876 L49.0965606,57.6506076 L51.6735507,58.8792679 L54.5615837,53.6395761 L57.3112026,49.0390987 L61.0110574,43.1912977 L52.7295412,29.322989 L42.3858108,13.3091905 L35.1105183,4.5787037 L28.018741,0.429253472 L16.4704972,23.9083297 L12.3033004,34.8177445 L10.0684575,42.0808377 L0.132193216,60.9197772 Z" id="Path-2" fill="#FEFEFE"></path>
                    <path d="M34.7675935,4.4822772 C33.9351805,3.82876098 32.0696855,2.6968316 32.0696855,2.6968316 L31.1999319,7.37818287 L30.9923108,15.391692 L29.6789323,20.6998155 L26.9899668,26.6393772 L25.4767432,30.149613 L25.8834318,32.8293367 L29.1859294,35.0090422 L33.4736552,38.466399 L36.7932602,42.3312355 L39.8274833,44.7348995 L40.380362,53.6574617 L41.0662115,54.7119321 L44.7917274,53.6574617 L51.9060552,59.9150752 L55.7015558,51.1301541 L60.5297186,42.3312355 L57.9224018,38.0519206 L52.8220765,29.3634259 L46.7404109,20.6998155 L43.8865927,16.2050962 L38.268381,8.25224248 C38.268381,8.25224248 36.0865603,5.51778007 34.7675935,4.4822772 Z" id="Path-5" fill="#F7F7F7"></path>
                    <path d="M76.4418938,68.2513021 L76.4418938,79.4383319 L78.8649177,87.1322338 L84.9504713,99.823206 L91.1573316,108.935511 L95.7047783,117.736762 L96.9489497,124.601707 L94.1122388,131.174262 L90.9815924,134.891348 L90.1340006,140.096824 L91.3797273,143.194915 L123.793504,144.12963 L118.830815,135.101309 L100.833875,108.612015 L94.7654288,101.852828 L91.9116106,94.8323568 L85.7047503,84.3545284 L82.3859229,77.3496094 L76.4418938,68.2513021 Z" id="Path-4" fill="#414E61"></path>
                    <path d="M43.6579761,21.89426 L43.0358904,28.1542065 L44.7559575,34.6902127 L47.5747834,39.1771557 L48.4215976,43.6555447 L48.4215976,49.45591 L48.620665,56.0525716 L50.1416646,58.2237232 C50.1416646,58.2237232 52.1557302,59.4936349 52.2769739,59.317853 C53.7941643,57.1181957 57.2359882,50.4480367 57.2359882,50.4480367 L61.0025038,42.4774306 L58.2801011,39.1771557 L53.2478164,29.8564453 L47.5747834,21.89426 L43.6579761,21.89426 Z" id="Path-6" fill="#E2E4E3"></path>
                </g>
                <g id="middle" transform="translate(272.324247, 0.000000)" sketch:type="MSShapeGroup">
                    <path d="M102.663585,90.8337674 L95.5531449,111.543692 L87.6744292,119.422671 L83.3384917,129.659433 L90.2436432,143.821687 L69.9729799,151.109664 L77.1114136,169.751085 L87.7335273,194.153212 L90.887502,203.802083 L92.8657346,226.462312 L97.2016721,237.49537 L89.1176681,252.04333 L104.106824,253.222222 L157.805263,140.067274 L133.584356,87.6112558 L111.571852,77.1380932 L102.663585,90.8337674 Z" id="Path-9" fill="#586474"></path>
                    <path d="M148.500416,121.688694 L146.148932,137.008066 L144.24535,153.017976 L141.099151,162.959238 L138.797434,173.698351 L131.638783,184.540111 L128.630998,191.681894 L122.058662,205.341797 L116.665179,215.283058 L111.01042,223.116934 L106.585835,225.466942 L104.128597,225.466942 L104.128597,238.850007 L100.186128,252.131981 L112.78803,254.018519 L150.407109,169.544235 L160.990342,147.132849 L148.500416,121.688694 Z" id="Path-7" fill="#4B576B"></path>
                    <path d="M80.8369295,0.444806134 L74.8781258,18.2005027 L64.4037575,39.9462348 L56.6440156,63.056713 L53.5141468,70.0375253 L46.251296,76.193269 L40.5351058,96.3160807 L30.0031945,121.002821 L60.8959716,86.3639323 L69.3625583,94.8308015 L86.1184373,73.9404659 L111.7577,115.898438 L123.353378,83.7946325 L133.23521,97.6022859 L135.624019,89.2847222 L100.493283,28.0966616 L90.3175159,13.7158927 L80.8369295,0.444806134 Z" id="Path-8" fill="#FEFEFE"></path>
                    <path d="M41.6330871,164.040148 L30.2147036,183.720486 L25.6734779,197.966725 L20.3608658,213.780671 L0.475895579,241.545284 L10.74031,237.591797 L21.5988164,227.914931 L36.1742849,210.950087 L36.7621559,191.036458 L40.5102224,174.071615 L41.6330871,164.040148 Z" id="Path-10" fill="#4B576B"></path>
                    <path d="M82.7770593,2.7885923 L84.5468932,12.642759 L85.1378747,19.1624349 L82.1891883,39.2564742 L87.49869,46.3671513 L97.7942087,53.2974175 L96.997939,60.2027995 L86.2451872,73.8619249 L109.772469,114.522027 L122.960687,84.1912254 L120.189295,59.7611039 L82.7770593,2.7885923 Z" id="Path-11" fill="#F7F7F7"></path>
                    <path d="M112.600627,48.7731481 L111.726596,61.8311632 L106.591278,71.5080295 L105.795009,82.3948929 L108.746806,90.0934606 L101.225011,98.9491464 L111.726596,117.367386 L123.499568,85.1383825 L132.970824,96.557147 L136.127909,90.8057726 L112.600627,48.7731481 Z" id="Path-12" fill="#E2E4E3"></path>
                </g>
                <g id="left" transform="translate(209.418938, 74.851852)" sketch:type="MSShapeGroup">
                    <path d="M53.1113463,63.3506583 L42.6019856,63.3506583 L33.6330647,79.8878038 L30.2831331,73.1768302 L36.2878155,110.767614 L33.6330647,117.568793 L27.6283822,125.150716 L42.6019856,149.35999 L78.5943104,75.0260417 L72.9939837,65.2387514 L60.6766864,54.0252821 L53.1113463,63.3506583 Z" id="Path-14" fill="#546173"></path>
                    <path d="M45.4915738,0.606553819 L31.9713182,30.1503906 L21.8445402,45.9596716 L15.979827,54.6248372 L9.76052502,64.7379557 L0.584760581,82.8676939 L14.4401649,69.8703342 L21.3437612,64.6337529 L27.169594,62.0675637 L32.8927827,79.7991536 L45.4915738,62.0815611 L50.50714,66.9059968 L58.7824353,52.9210431 L66.1728137,58.1420718 L72.4869838,64.7379557 L78.5943104,72.5111762 L76.5289858,59.0285735 L68.1634881,42.1943721 L61.8648701,26.7490234 L56.6424604,14.8294633 L45.4915738,0.606553819 Z" id="Path-13" fill="#FEFEFE"></path>
                    <path d="M49.4791433,5.38744213 L44.1680864,42.8880208 L43.2816143,51.3564453 L45.8492731,61.9042607 L50.8788362,63.4828559 L59.9364043,53.627134 L78.15574,69.3695385 L70.3812237,45.6470631 L60.4387386,23.7986834 L53.2256546,10.8013238 L49.4791433,5.38744213 Z" id="Path-15" fill="#F7F7F7"></path>
                </g>
            </g>
        </g>
    </g>
</svg>