<?xml version="1.0" encoding="UTF-8" standalone="no"?>
<svg width="128px" height="32px" viewBox="0 0 128 32" version="1.1" xmlns="http://www.w3.org/2000/svg" xmlns:xlink="http://www.w3.org/1999/xlink" xmlns:sketch="http://www.bohemiancoding.com/sketch/ns">
    <!-- Generator: Sketch 3.1.1 (8761) - http://www.bohemiancoding.com/sketch -->
    <title>icons</title>
    <desc>Created with Sketch.</desc>
    <defs></defs>
    <g id="Page-1" stroke="none" stroke-width="1" fill="none" fill-rule="evenodd" sketch:type="MSPage">
        <g id="icons" sketch:type="MSLayerGroup">
            <path d="M64,0 L64,32 L96,32 L96,0 L64,0 L64,0 Z" id="Rectangle-1" stroke="#545454" fill="#83C4D2" sketch:type="MSShapeGroup"></path>
            <path d="M96,0 L96,32 L128,32 L128,0 L96,0 L96,0 Z" id="Rectangle-2" stroke="#545454" fill="#5BB1C4" sketch:type="MSShapeGroup"></path>
            <path d="M32,32 L64,32 L64,0 L32,0 L32,32 Z" id="Rectangle-3" stroke="#545454" fill="#5BB1C4" sketch:type="MSShapeGroup"></path>
            <path d="M122.882474,19.3633032 L112.596449,8.80595311 L101.948243,18.9978948 L104.866343,21.9928625 L112.493702,14.6923279 L119.861629,22.2546062 L122.882474,19.3633032 L122.882474,19.3633032 Z" id="Shape" fill="#FFFFFF" sketch:type="MSShapeGroup"></path>
            <path d="M82.384766,5.91385417 L77.717234,5.91385417 C75.6373404,5.91385417 74.1975851,6.38385417 72.9017447,7.4871875 C71.882617,8.3934375 71.2744149,9.71052083 71.2744149,11.0105208 C71.2744149,13.0134375 72.7560106,15.1419792 75.5015106,15.1419792 C75.7654894,15.1419792 76.057766,15.1140625 76.3156809,15.0892708 L76.2776809,15.1844792 C76.1673191,15.4569792 76.0628191,15.7140625 76.0628191,16.1153125 C76.0628191,16.8965625 76.4284681,17.3784375 76.7819894,17.8442708 L76.8264574,17.9032292 L76.7474255,17.9088542 C75.6136915,17.9888542 73.5034787,18.1378125 71.9620532,19.1144792 C70.1414894,20.2303125 70,21.8530208 70,22.3236458 C70,24.1963542 71.6930213,26.0861458 75.4756383,26.0861458 C79.8739362,26.0861458 82.1753617,23.5851042 82.1753617,21.1146875 C82.1759681,19.2873958 81.1364255,18.3853125 80.0330106,17.4276042 L79.1022128,16.6813542 C78.8145851,16.4357292 78.4564149,16.1301042 78.4564149,15.5636458 C78.4564149,15.0069792 78.8145851,14.6394792 79.1307128,14.3153125 L79.1636596,14.2809375 C80.1688404,13.4648958 81.308234,12.5396875 81.308234,10.5384375 C81.308234,8.52635417 80.0881915,7.4865625 79.5018191,6.98677083 L81.0507234,6.98677083 C81.0697234,6.98677083 81.0885213,6.98135417 81.1044894,6.97072917 L82.4385319,6.10614583 C82.4765319,6.08135417 82.4943191,6.03364583 82.4817872,5.9890625 C82.4694574,5.94447917 82.4298404,5.91385417 82.384766,5.91385417 L82.384766,5.91385417 L82.384766,5.91385417 Z M76.7245851,24.9836458 C74.0435638,24.9836458 72.2422021,23.6930208 72.2422021,21.7719792 C72.2422021,20.5176042 72.9789574,19.6061458 74.4300319,19.0642708 C75.5920638,18.6611458 77.0920532,18.6411458 77.1070106,18.6411458 C77.3610851,18.6411458 77.4888298,18.6411458 77.691766,18.6673958 C79.5677128,20.0434375 80.4696064,20.7659375 80.4696064,22.1419792 C80.4694043,23.8948958 79.0342979,24.9836458 76.7245851,24.9836458 L76.7245851,24.9836458 L76.7245851,24.9836458 Z M76.6993191,14.4046875 C74.449234,14.4046875 73.5154043,11.3561458 73.5154043,9.72385417 C73.5154043,8.89385417 73.6985319,8.25677083 74.0752979,7.77572917 C74.4842021,7.2484375 75.1843723,6.9078125 75.8590745,6.9078125 C77.9250213,6.9078125 79.0674468,9.76989583 79.0674468,11.7480208 C79.0674468,12.0601042 79.0674468,13.0094792 78.4311489,13.6688542 C78.0032447,14.1090625 77.3073191,14.4046875 76.6993191,14.4046875 L76.6993191,14.4046875 L76.6993191,14.4046875 Z" id="Shape" fill="#FFFFFF" sketch:type="MSShapeGroup"></path>
            <path d="M89.2677766,15.5440625 L86.8082872,15.5440625 L86.8082872,13.0180208 C86.8082872,12.9605208 86.7630106,12.9138542 86.7072234,12.9138542 L85.6490851,12.9138542 C85.5932979,12.9138542 85.5480213,12.9605208 85.5480213,13.0180208 L85.5480213,15.5440625 L83.1010638,15.5440625 C83.0452766,15.5440625 83,15.5907292 83,15.6482292 L83,16.7532292 C83,16.8107292 83.0452766,16.8573958 83.1010638,16.8573958 L85.5480213,16.8573958 L85.5480213,19.3996875 C85.5480213,19.4571875 85.5932979,19.5038542 85.6490851,19.5038542 L86.7072234,19.5038542 C86.7630106,19.5038542 86.8082872,19.4571875 86.8082872,19.3996875 L86.8082872,16.8571875 L89.2677766,16.8571875 C89.3235638,16.8571875 89.3688404,16.8105208 89.3688404,16.7530208 L89.3688404,15.6482292 C89.3688404,15.5905208 89.323766,15.5440625 89.2677766,15.5440625 L89.2677766,15.5440625 L89.2677766,15.5440625 Z" id="Shape" fill="#FFFFFF" sketch:type="MSShapeGroup"></path>
            <path d="M0,0 L0,32 L32,32 L32,0 L0,0 L0,0 Z" id="Rectangle-2" stroke="#545454" fill="#83C4D2" sketch:type="MSShapeGroup"></path>
            <path d="M58.5010004,8.98756855 C57.7279609,9.33012087 56.8984855,9.56242647 56.0270114,9.66611089 C56.91686,9.13325172 57.5980272,8.28802684 57.9208926,7.28399418 C57.0874799,7.77747952 56.1648198,8.13578137 55.183099,8.3300256 C54.3982473,7.49136302 53.2787181,6.96900355 52.0397549,6.96900355 C49.6602632,6.96900355 47.7309455,8.89832121 47.7309455,11.2765005 C47.7309455,11.613803 47.7690069,11.9432307 47.8425047,12.2582213 C44.2621111,12.0784142 41.087268,10.3630277 38.9623936,7.75648014 C38.5909671,8.39171126 38.3796609,9.13193926 38.3796609,9.92204078 C38.3796609,11.4169339 39.1408883,12.7359571 40.295854,13.5076842 C39.58975,13.4840599 38.9256447,13.2898157 38.3442245,12.9669503 L38.3442245,13.0207612 C38.3442245,15.1075742 39.8299303,16.8492099 41.7999343,17.2455731 C41.4390075,17.3426952 41.0583938,17.3965061 40.6646555,17.3965061 C40.3864138,17.3965061 40.1173593,17.3689445 39.8535546,17.3177585 C40.4021633,19.0292076 41.992866,20.2747331 43.87756,20.3101695 C42.4036663,21.4651352 40.5452216,22.1528648 38.5266566,22.1528648 C38.1788544,22.1528648 37.8363021,22.1318654 37.4989996,22.093804 C39.4060054,23.3170177 41.6700006,24.0309965 44.1033033,24.0309965 C52.0279428,24.0309965 56.361689,17.4660666 56.361689,11.7726108 L56.3472519,11.2148149 C57.1924768,10.6097703 57.92483,9.85116789 58.5010004,8.98756855 L58.5010004,8.98756855 L58.5010004,8.98756855 Z" id="Shape" fill="#FFFFFF" sketch:type="MSShapeGroup"></path>
            <text id="f" sketch:type="MSTextLayer" font-family="Arial" font-size="28" font-weight="bold" fill="#FFFFFF">
                <tspan x="10.4857663" y="27">f</tspan>
            </text>
        </g>
    </g>
</svg>